<?xml version="1.0" encoding="utf-8"?>
<!-- Generator: Adobe Illustrator 25.2.3, SVG Export Plug-In . SVG Version: 6.00 Build 0)  -->
<svg version="1.1" id="Layer_1" xmlns="http://www.w3.org/2000/svg" xmlns:xlink="http://www.w3.org/1999/xlink" x="0px" y="0px"
	 viewBox="0 0 302.6 61.4" style="enable-background:new 0 0 302.6 61.4;" xml:space="preserve">
<style type="text/css">
	.st0{fill:#2B3181;}
	.st1{fill:#16A44E;}
</style>
<g>
	<path class="st0" d="M13.9,0C8.2,0,3.4,4.4,2.8,10.1L0.1,38c-0.3,3.2,0,7.7,5.6,11.2L22,59.7c1.8,1.1,4.2,1.7,6.6,1.7
		c2.3,0,4.6-0.5,6.5-1.5l16.7-10.3c3.7-2,6.2-5.8,6.6-9.8l0.8-7.9c0.2-2.1-0.5-4.2-1.9-5.8c-1.4-1.5-3.4-2.4-5.6-2.4H38.5
		c-0.5,0-0.9,0.4-0.9,0.8l-0.4,4.1c-0.1,0.6,0.4,1,0.9,1h13.3c0.3,0,1,0.1,1.4,0.5s0.4,1.1,0.4,1.5l-0.8,7.6
		c-0.2,2.2-1.1,3.2-3.4,4.8L31.9,54.6c-2.2,1.2-4.8,1-6.3,0.1L8.8,44.3c-2.2-1.5-2.9-3.3-2.6-6.8l2.5-26.8C9.1,7.5,12,6,14.8,6h46.9
		l0,0c0.3-3.1-2.3-6-5.5-6H13.9z"/>
</g>
<g>
	<path class="st1" d="M18.5,34.4l0.4-4.7h11.4c0.5,0,0.9-0.4,0.9-0.8l0.4-4.1c0.1-0.6-0.4-1-0.9-1H19.5l0.5-5c0.1-0.5,0.5-1,1.1-1
		h38.3c0.7,0,1.3-0.5,1.4-1.2l0.3-3.2c0.1-0.8-0.6-1.5-1.4-1.5H19.4c-2.7,0-5,2-5.3,4.6L12.3,36c-0.1,1.4,0.3,2.8,1.3,3.8
		c1,1.1,2.4,1.7,3.9,1.7h22.6c3.5,0,6.3-2.5,6.6-6H19.6C18.9,35.6,18.4,35.1,18.5,34.4z"/>
</g>
<g>
	<g>
		<g>
			<path class="st1" d="M71.8,34.3h15.1l0.1-0.7c0.2-2-1.4-3.8-3.5-3.8h-6l0.6-6.4h9.1c0.4,0,0.8-0.3,0.8-0.7l0.3-2.7
				c0-0.5-0.4-0.9-0.9-0.9h-8.9l0.6-5.7h6.5c1.9,0,3.5-1.4,3.7-3.3L89.4,9H74.3L71.8,34.3z"/>
		</g>
		<g>
			<path class="st1" d="M108.9,21.5c0,0.1,0,0.2,0,0.4c-0.3,3.1-0.8,5.1-1.4,6.2c-0.5,0.8-1.1,1.5-1.9,1.9s-1.7,0.6-2.7,0.6
				c-1.5,0-2.6-0.4-3.4-1.2s-1.2-2-1.3-3.5c0-0.5,0-1,0-1.4s0-0.8,0.1-1.2L99.7,10c0.1-0.6-0.4-1.1-1-1.1h-3.4
				c-0.5,0-0.9,0.4-0.9,0.8l-1.1,10.8c-0.1,1.5-0.2,2.7-0.3,3.7c-0.1,1-0.1,1.7-0.1,2.1c0.1,2.9,1,5.1,2.6,6.5
				c1.6,1.4,4,2.2,7.2,2.2c2.1,0,3.8-0.3,5.3-0.9c1.5-0.6,2.7-1.5,3.6-2.7c0.7-0.9,1.2-1.9,1.5-3c0.4-1.1,0.7-2.9,0.9-5.2l1.3-12.9
				c0.1-0.7-0.5-1.3-1.2-1.3h-2.9c-0.6,0-1.1,0.4-1.1,1L108.9,21.5z"/>
		</g>
		<g>
			<path class="st1" d="M136.4,15.5c0-1.1-0.3-2-0.7-2.9c-0.5-0.9-1.1-1.6-1.9-2.2c-0.8-0.6-1.6-0.9-2.6-1.2c-1-0.2-2.6-0.3-4.8-0.3
				h-3.9c-0.8,0-1.4,0.6-1.5,1.3L118.7,33c-0.1,0.6,0.5,1.2,1.1,1.2h3.2c0.5,0,1-0.4,1-0.9l1.1-10.7l4.7,9.7c0.6,1.2,1.8,2,3.1,2
				h3.7l-6.1-11.4c2-0.5,3.6-1.3,4.6-2.6C135.9,19.1,136.4,17.5,136.4,15.5z M130.1,19.1c-0.7,0.5-2.1,0.8-4.1,0.8h-0.8l0.7-6.8h0.6
				c1.8,0,3,0.2,3.6,0.7s1,1.3,1,2.4C131.1,17.6,130.8,18.5,130.1,19.1z"/>
		</g>
		<g>
			<path class="st1" d="M162.6,11.6c-2.4-2.2-5.5-3.3-9.3-3.3c-2.2,0-4.1,0.4-6,1.2c-1.8,0.8-3.4,1.9-4.7,3.4
				c-1.2,1.4-2,2.9-2.6,4.6s-0.9,3.5-0.8,5.3c0.1,3.7,1.4,6.6,3.7,8.9c2.4,2.2,5.5,3.3,9.3,3.3c2.2,0,4.3-0.4,6.1-1.3
				c1.9-0.8,3.5-2.1,4.8-3.7c1.1-1.3,1.9-2.8,2.4-4.4c0.5-1.7,0.8-3.4,0.7-5.3C166.2,16.7,165,13.8,162.6,11.6z M158.6,27.6
				c-1.6,1.9-3.7,2.8-6.2,2.8c-2.3,0-4.1-0.7-5.5-2.1s-2.1-3.3-2.2-5.6c-0.1-2.8,0.7-5.1,2.3-7c1.6-1.8,3.7-2.8,6.2-2.8
				c2.3,0,4.1,0.7,5.5,2.1s2.1,3.2,2.2,5.6C161,23.4,160.2,25.7,158.6,27.6z"/>
		</g>
	</g>
	<g>
		<g>
			<path class="st0" d="M193.6,25.5h4.6c-0.5,1.6-1.3,2.8-2.4,3.6c-1.1,0.9-2.5,1.3-4.1,1.3c-2.3,0-4.1-0.7-5.5-2.1S184,25,184,22.7
				c-0.1-2.8,0.7-5.2,2.3-7.1s3.7-2.8,6.2-2.8c1.4,0,2.6,0.3,3.8,1c0.8,0.5,1.5,1.1,2.2,1.8c0.5,0.5,1.3,0.6,1.8,0.2l1.9-1.4
				c0.6-0.4,0.7-1.3,0.2-1.9c-1-1.2-2.2-2.2-3.6-2.9c-1.8-0.9-3.9-1.3-6.4-1.3c-2.2,0-4.2,0.4-5.9,1.1c-1.8,0.7-3.2,1.8-4.4,3.3
				c-1.2,1.4-2,2.9-2.6,4.7c-0.6,1.7-0.9,3.5-0.8,5.4c0.1,3.7,1.4,6.7,3.7,8.9c2.4,2.2,5.5,3.3,9.3,3.3c3.9,0,6.9-1.2,9.1-3.7
				c2.2-2.4,3.4-5.9,3.5-10.3h-10.5c-0.6,0-1.1,0.5-1.2,1.1l-0.2,2C192.3,24.9,192.9,25.5,193.6,25.5z"/>
		</g>
		<g>
			<path class="st0" d="M226.4,9c-0.5,0-1,0.4-1.1,0.9l-1.2,11.7c0,0.1,0,0.2,0,0.4c-0.3,3.1-0.8,5.1-1.4,6.2
				c-0.5,0.8-1.1,1.5-1.9,1.9c-0.8,0.4-1.7,0.6-2.7,0.6c-1.5,0-2.6-0.4-3.4-1.2c-0.8-0.8-1.2-2-1.3-3.5c0-0.5,0-1,0-1.4
				s0-0.8,0.1-1.2l1.3-13.1c0.1-0.7-0.5-1.2-1.1-1.2h-3.1c-0.6,0-1,0.4-1.1,1l-1.1,10.7c-0.1,1.5-0.2,2.7-0.3,3.7s-0.1,1.7-0.1,2.1
				c0.1,2.9,1,5.1,2.6,6.5c1.6,1.4,4,2.2,7.2,2.2c2.1,0,3.8-0.3,5.3-0.9c1.5-0.6,2.7-1.5,3.6-2.7c0.7-0.9,1.2-1.9,1.5-3
				c0.4-1.1,0.7-2.9,0.9-5.2l1.3-13c0.1-0.7-0.5-1.2-1.1-1.2h-2.9V9z"/>
		</g>
		<g>
			<path class="st0" d="M242.7,9.6l-11.4,23.3c-0.3,0.6,0.2,1.4,0.9,1.4h3.7c0.4,0,0.7-0.2,0.9-0.5l2.3-4.9h9.7l1.1,4.7
				c0.1,0.5,0.5,0.8,1,0.8h3.6c0.6,0,1.1-0.6,0.9-1.2L249,9.9c-0.1-0.5-0.6-0.9-1.2-0.9h-4.2C243.2,9,242.9,9.2,242.7,9.6z
				 M241.1,24.7l4.3-10l2.3,10H241.1z"/>
		</g>
		<g>
			<path class="st0" d="M276.4,15.6c0-1.1-0.3-2-0.7-2.9c-0.5-0.9-1.1-1.6-1.9-2.2c-0.8-0.6-1.6-0.9-2.6-1.2S268.6,9,266.4,9h-3.9
				c-0.8,0-1.4,0.6-1.5,1.4l-2.3,22.8c-0.1,0.6,0.5,1.2,1.1,1.2h3.2c0.5,0,1-0.4,1-0.9l1.1-10.7l4.4,9.2c0.7,1.5,2.2,2.4,3.8,2.4
				h3.2L270.4,23c2-0.5,3.6-1.3,4.6-2.6C276,19.2,276.5,17.6,276.4,15.6z M270.1,19.1c-0.7,0.5-2.1,0.8-4.1,0.8h-0.8l0.7-6.8h0.6
				c1.8,0,3,0.2,3.6,0.7s1,1.3,1,2.4C271.2,17.6,270.8,18.6,270.1,19.1z"/>
		</g>
		<g>
			<path class="st0" d="M300.9,14.4c-1-1.8-2.4-3.2-4.2-4.2c-0.9-0.4-1.9-0.8-3.2-0.9c-1.3-0.2-3.4-0.3-6.4-0.3h-3.7
				c-1,0-1.7,0.7-1.8,1.6L279.5,32c-0.1,1.2,0.9,2.3,2.1,2.3h2.3h2c3.4,0,5.9-0.2,7.5-0.6s3-1,4.2-1.9c1.8-1.3,3.1-2.9,3.9-4.6
				c0.8-1.8,1.2-3.9,1.1-6.3C302.5,18.4,301.9,16.2,300.9,14.4z M296.6,24.8c-0.4,1.2-0.9,2.2-1.7,3.1c-0.7,0.7-1.6,1.3-2.6,1.6
				c-1.1,0.3-2.5,0.5-4.4,0.5c-0.2,0-0.8,0-1.4,0c-0.8,0-1.5-0.7-1.4-1.6l1.3-13.5c0.1-0.7,0.6-1.2,1.3-1.2h2.2
				c2.4,0,4.2,0.6,5.3,1.7c1.1,1.1,1.7,2.9,1.8,5.4C297.2,22.2,297,23.5,296.6,24.8z"/>
		</g>
	</g>
	<g>
		<path class="st0" d="M70.1,52.9l1.2-9.4h2l-1.2,9.4H70.1z"/>
		<path class="st0" d="M74.8,50.3c0.2,0.4,0.5,0.7,0.8,0.9c0.3,0.2,0.6,0.3,1,0.3c0.4,0,0.8-0.1,1-0.3c0.2-0.2,0.4-0.5,0.4-0.9
			c0-0.3-0.1-0.5-0.2-0.7c-0.1-0.2-0.3-0.4-0.6-0.5c-0.1,0-0.2-0.1-0.3-0.2c-0.8-0.4-1.3-0.8-1.6-1.1c-0.2-0.2-0.3-0.5-0.4-0.8
			c-0.1-0.3-0.2-0.6-0.2-0.9c0-0.8,0.3-1.5,0.9-2c0.6-0.5,1.3-0.8,2.2-0.8c0.5,0,1,0.1,1.4,0.3c0.4,0.2,0.8,0.5,1.1,0.9l-1,1.3
			c-0.2-0.3-0.4-0.5-0.6-0.7c-0.2-0.2-0.5-0.2-0.9-0.2c-0.4,0-0.7,0.1-0.9,0.3c-0.2,0.2-0.4,0.5-0.4,0.8c0,0.4,0.4,0.9,1.2,1.3
			c0.2,0.1,0.3,0.2,0.3,0.2c0.7,0.4,1.2,0.8,1.4,1.2c0.3,0.4,0.4,0.9,0.4,1.5c0,0.9-0.3,1.6-0.9,2.1c-0.6,0.5-1.4,0.8-2.4,0.8
			c-0.6,0-1.1-0.1-1.6-0.4c-0.5-0.2-0.9-0.6-1.3-1.1L74.8,50.3z"/>
		<path class="st0" d="M85.8,53.1c-1.4,0-2.5-0.4-3.4-1.2s-1.3-1.9-1.3-3.3c0-0.7,0.1-1.3,0.4-2c0.2-0.6,0.6-1.2,1-1.7
			c0.5-0.6,1.1-1,1.8-1.3c0.7-0.3,1.4-0.4,2.2-0.4c1.4,0,2.5,0.4,3.4,1.2c0.9,0.8,1.3,1.9,1.3,3.2c0,0.7-0.1,1.4-0.3,2
			c-0.2,0.6-0.5,1.2-0.9,1.6c-0.5,0.6-1.1,1.1-1.8,1.4S86.6,53.1,85.8,53.1z M86.4,44.9c-0.9,0-1.7,0.3-2.3,1
			c-0.6,0.7-0.9,1.5-0.9,2.6c0,0.9,0.3,1.6,0.8,2.1c0.5,0.5,1.2,0.8,2,0.8c0.9,0,1.7-0.3,2.3-1s0.9-1.6,0.9-2.6
			c0-0.9-0.2-1.6-0.7-2.1C87.9,45.2,87.2,44.9,86.4,44.9z"/>
		<path class="st0" d="M96.8,52.9l2.3-2.7c0.1-0.1,0.2-0.2,0.4-0.4c0.2-0.2,0.3-0.3,0.5-0.5c-0.2,0-0.3,0-0.5,0.1
			c-0.1,0-0.2,0-0.3,0c-0.8,0-1.4-0.3-1.9-0.8c-0.5-0.5-0.7-1.2-0.7-2c0-0.9,0.3-1.7,1-2.3c0.7-0.6,1.5-0.9,2.6-0.9
			c0.9,0,1.6,0.3,2.2,0.8c0.5,0.5,0.8,1.2,0.8,2.1c0,0.6-0.2,1.2-0.5,1.9c-0.3,0.7-0.9,1.5-1.8,2.5l-1.8,2.2H96.8z M99.7,47.9
			c0.4,0,0.8-0.2,1.1-0.5c0.3-0.3,0.4-0.7,0.4-1.1c0-0.4-0.1-0.7-0.4-1s-0.6-0.4-1-0.4c-0.5,0-0.8,0.1-1.1,0.4
			c-0.3,0.3-0.5,0.7-0.5,1.1c0,0.4,0.1,0.8,0.4,1C98.9,47.8,99.3,47.9,99.7,47.9z"/>
		<path class="st0" d="M110.9,47.3c0,1.7-0.4,3.1-1.1,4.2s-1.7,1.6-2.8,1.6c-0.9,0-1.7-0.3-2.2-1c-0.5-0.7-0.8-1.7-0.8-3
			c0-1.7,0.4-3.1,1.1-4.2s1.6-1.6,2.8-1.6c1,0,1.7,0.3,2.2,1C110.7,45,110.9,46,110.9,47.3z M107.8,45c-0.6,0-1,0.4-1.3,1.2
			c-0.3,0.8-0.5,1.9-0.5,3.2c0,0.7,0.1,1.2,0.3,1.5c0.2,0.3,0.5,0.5,0.9,0.5c0.6,0,1-0.4,1.4-1.2s0.5-1.8,0.5-3.2
			c0-0.7-0.1-1.2-0.3-1.6C108.5,45.2,108.2,45,107.8,45z"/>
		<path class="st0" d="M118.8,47.3c0,1.7-0.4,3.1-1.1,4.2s-1.7,1.6-2.8,1.6c-0.9,0-1.7-0.3-2.2-1c-0.5-0.7-0.8-1.7-0.8-3
			c0-1.7,0.4-3.1,1.1-4.2s1.6-1.6,2.8-1.6c1,0,1.7,0.3,2.2,1C118.5,45,118.8,46,118.8,47.3z M115.7,45c-0.6,0-1,0.4-1.3,1.2
			c-0.3,0.8-0.5,1.9-0.5,3.2c0,0.7,0.1,1.2,0.3,1.5c0.2,0.3,0.5,0.5,0.9,0.5c0.6,0,1-0.4,1.4-1.2s0.5-1.8,0.5-3.2
			c0-0.7-0.1-1.2-0.3-1.6C116.4,45.2,116.1,45,115.7,45z"/>
		<path class="st0" d="M121.9,52.9l1-7.8h-1.6l0.2-1.6h3.5l-1.2,9.3H121.9z"/>
		<path class="st0" d="M127.7,51.9c0-0.3,0.1-0.6,0.3-0.8c0.2-0.2,0.5-0.3,0.8-0.3s0.6,0.1,0.8,0.3c0.2,0.2,0.3,0.5,0.3,0.8
			c0,0.3-0.1,0.6-0.3,0.8c-0.2,0.2-0.5,0.3-0.8,0.3c-0.3,0-0.6-0.1-0.8-0.3C127.8,52.5,127.7,52.2,127.7,51.9z M128.2,47.7
			c0-0.3,0.1-0.6,0.3-0.8c0.2-0.2,0.5-0.3,0.8-0.3c0.3,0,0.6,0.1,0.8,0.3c0.2,0.2,0.3,0.5,0.3,0.8c0,0.3-0.1,0.6-0.3,0.8
			c-0.2,0.2-0.5,0.3-0.8,0.3s-0.6-0.1-0.8-0.3C128.3,48.3,128.2,48,128.2,47.7z"/>
		<path class="st0" d="M131.1,52.9l0.1-0.3l4.1-4c0.6-0.6,1.1-1.1,1.3-1.5c0.3-0.4,0.4-0.8,0.4-1.1c0-0.4-0.1-0.7-0.4-0.9
			c-0.2-0.2-0.6-0.3-1-0.3c-0.5,0-0.9,0.1-1.1,0.4s-0.4,0.7-0.4,1.2l-1.8,0c0-1,0.3-1.7,0.9-2.3c0.6-0.5,1.4-0.8,2.5-0.8
			c1,0,1.8,0.2,2.3,0.7c0.6,0.5,0.8,1.1,0.8,1.9c0,0.7-0.3,1.5-0.8,2.2c-0.6,0.8-1.7,1.8-3.3,3.2h3.5l-0.2,1.6H131.1z"/>
		<path class="st0" d="M146.6,47.3c0,1.7-0.4,3.1-1.1,4.2s-1.7,1.6-2.8,1.6c-0.9,0-1.7-0.3-2.2-1c-0.5-0.7-0.8-1.7-0.8-3
			c0-1.7,0.4-3.1,1.1-4.2s1.6-1.6,2.8-1.6c1,0,1.7,0.3,2.2,1C146.4,45,146.6,46,146.6,47.3z M143.5,45c-0.6,0-1,0.4-1.3,1.2
			c-0.3,0.8-0.5,1.9-0.5,3.2c0,0.7,0.1,1.2,0.3,1.5c0.2,0.3,0.5,0.5,0.9,0.5c0.6,0,1-0.4,1.4-1.2s0.5-1.8,0.5-3.2
			c0-0.7-0.1-1.2-0.3-1.6C144.2,45.2,143.9,45,143.5,45z"/>
		<path class="st0" d="M149.7,52.9l1-7.8h-1.6l0.2-1.6h3.5l-1.2,9.3H149.7z"/>
		<path class="st0" d="M156.3,50.6c0.2,0.3,0.5,0.6,0.8,0.7c0.3,0.2,0.6,0.2,1,0.2c0.6,0,1-0.2,1.4-0.5c0.4-0.4,0.6-0.8,0.6-1.3
			c0-0.5-0.2-1-0.5-1.3s-0.8-0.5-1.3-0.5c-0.3,0-0.6,0.1-0.9,0.2s-0.6,0.3-1,0.5l-0.3-0.3l1.4-4.8h4.7l-0.2,1.5h-3.3l-0.5,1.6
			c0.1,0,0.2,0,0.3,0c0.1,0,0.2,0,0.3,0c0.9,0,1.7,0.3,2.2,0.9c0.6,0.6,0.9,1.3,0.9,2.2c0,1-0.4,1.8-1.1,2.5s-1.6,1-2.6,1
			c-0.7,0-1.3-0.1-1.8-0.3c-0.5-0.2-1-0.6-1.4-1.1L156.3,50.6z"/>
		<path class="st0" d="M174.7,52.5c-0.4,0.2-0.8,0.3-1.3,0.4c-0.5,0.1-0.9,0.1-1.5,0.1c-1.4,0-2.5-0.4-3.3-1.2s-1.3-1.9-1.3-3.2
			c0-0.7,0.1-1.4,0.4-2c0.2-0.6,0.6-1.2,1-1.7c0.5-0.6,1.1-1,1.8-1.3c0.7-0.3,1.4-0.4,2.2-0.4c0.6,0,1.1,0.1,1.6,0.2
			c0.5,0.1,1,0.4,1.4,0.6l-0.3,1.9c-0.5-0.3-0.9-0.6-1.4-0.8c-0.5-0.2-0.9-0.2-1.4-0.2c-1,0-1.8,0.3-2.4,1c-0.6,0.7-0.9,1.5-0.9,2.6
			c0,0.9,0.2,1.6,0.7,2.1c0.5,0.5,1.2,0.8,2,0.8c0.5,0,1.1-0.1,1.5-0.2c0.5-0.1,0.9-0.4,1.3-0.7L174.7,52.5z"/>
		<path class="st0" d="M176.5,52.9l1.2-9.4h5.6l-0.2,1.7h-3.7l-0.3,2.1h3.6l-0.2,1.6H179l-0.3,2.4h3.7l-0.2,1.7H176.5z"/>
		<path class="st0" d="M186,52.9h-2l1.2-9.4h2c0.8,0,1.4,0,1.8,0.1c0.4,0.1,0.7,0.2,1,0.4c0.3,0.2,0.5,0.5,0.7,0.8
			c0.2,0.3,0.2,0.7,0.2,1.1c0,0.7-0.2,1.3-0.6,1.8c-0.4,0.5-1,0.8-1.8,1l2.1,4.2h-2.2l-1.9-4.3L186,52.9z M186.7,47.5h0.3
			c0.7,0,1.3-0.1,1.5-0.3s0.4-0.6,0.4-1.1c0-0.4-0.1-0.7-0.3-0.9s-0.7-0.3-1.3-0.3H187L186.7,47.5z"/>
		<path class="st0" d="M193.2,52.9l1-7.8h-2.5l0.2-1.7h6.7l-0.2,1.7h-2.3l-1,7.8H193.2z"/>
		<path class="st0" d="M198.7,52.9l1.2-9.4h2l-1.2,9.4H198.7z"/>
		<path class="st0" d="M202.8,52.9l1.2-9.4h5.6l-0.2,1.7h-3.6l-0.3,2.1h3.6l-0.2,1.6h-3.6l-0.5,4H202.8z"/>
		<path class="st0" d="M210.2,52.9l1.2-9.4h2l-1.2,9.4H210.2z"/>
		<path class="st0" d="M214.3,52.9l1.2-9.4h5.6l-0.2,1.7h-3.7l-0.3,2.1h3.6l-0.2,1.6h-3.7l-0.3,2.4h3.7l-0.2,1.7H214.3z"/>
		<path class="st0" d="M221.8,52.9l1.2-9.4h2c1.1,0,1.9,0,2.4,0.1c0.5,0.1,0.9,0.2,1.2,0.4c0.7,0.3,1.2,0.9,1.5,1.5s0.5,1.5,0.5,2.4
			c0,0.9-0.2,1.7-0.5,2.4c-0.3,0.7-0.8,1.2-1.5,1.7c-0.5,0.3-1,0.6-1.6,0.7c-0.6,0.1-1.5,0.2-2.8,0.2h-0.8H221.8z M224,51.2
			c0,0,0.1,0,0.1,0c0.5,0,0.8,0,1,0c0.7,0,1.2-0.1,1.6-0.2c0.4-0.1,0.7-0.3,1-0.6c0.3-0.3,0.5-0.7,0.7-1.1c0.2-0.5,0.2-1,0.2-1.5
			c0-0.9-0.2-1.6-0.6-2s-1-0.6-1.9-0.6h-1.3L224,51.2z"/>
		<path class="st0" d="M243.1,52.5c-0.4,0.2-0.8,0.3-1.3,0.4c-0.5,0.1-0.9,0.1-1.5,0.1c-1.4,0-2.5-0.4-3.3-1.2s-1.3-1.9-1.3-3.2
			c0-0.7,0.1-1.4,0.4-2c0.2-0.6,0.6-1.2,1-1.7c0.5-0.6,1.1-1,1.8-1.3c0.7-0.3,1.4-0.4,2.2-0.4c0.6,0,1.1,0.1,1.6,0.2
			c0.5,0.1,1,0.4,1.4,0.6l-0.3,1.9c-0.5-0.3-0.9-0.6-1.4-0.8c-0.5-0.2-0.9-0.2-1.4-0.2c-1,0-1.8,0.3-2.4,1c-0.6,0.7-0.9,1.5-0.9,2.6
			c0,0.9,0.2,1.6,0.7,2.1c0.5,0.5,1.2,0.8,2,0.8c0.5,0,1.1-0.1,1.5-0.2c0.5-0.1,0.9-0.4,1.3-0.7L243.1,52.5z"/>
		<path class="st0" d="M249.7,53.1c-1.4,0-2.5-0.4-3.4-1.2c-0.9-0.8-1.3-1.9-1.3-3.3c0-0.7,0.1-1.3,0.4-2c0.2-0.6,0.6-1.2,1-1.7
			c0.5-0.6,1.1-1,1.8-1.3c0.7-0.3,1.4-0.4,2.2-0.4c1.4,0,2.5,0.4,3.4,1.2c0.9,0.8,1.3,1.9,1.3,3.2c0,0.7-0.1,1.4-0.3,2
			c-0.2,0.6-0.5,1.2-0.9,1.6c-0.5,0.6-1.1,1.1-1.8,1.4C251.3,53,250.5,53.1,249.7,53.1z M250.3,44.9c-0.9,0-1.7,0.3-2.3,1
			c-0.6,0.7-0.9,1.5-0.9,2.6c0,0.9,0.2,1.6,0.8,2.1c0.5,0.5,1.2,0.8,2,0.8c0.9,0,1.7-0.3,2.3-1s0.9-1.6,0.9-2.6
			c0-0.9-0.2-1.6-0.7-2.1C251.8,45.2,251.1,44.9,250.3,44.9z"/>
		<path class="st0" d="M255.5,52.9l2.7-9.4h2.1l0.9,4.3c0.1,0.3,0.1,0.7,0.2,1.1c0,0.4,0.1,0.9,0.1,1.4c0.1-0.4,0.2-0.8,0.3-1.1
			c0.1-0.4,0.3-0.7,0.4-1l2.1-4.6h2.2l0.1,9.4h-1.9l0.1-4.4c0-0.5,0-1,0.1-1.5c0-0.5,0.1-1,0.1-1.5c-0.2,0.5-0.3,1-0.5,1.4
			c-0.2,0.4-0.3,0.8-0.5,1.2l-2.3,4.9h-1.1l-1.1-5.3c-0.1-0.3-0.1-0.6-0.2-1s-0.1-0.8-0.1-1.3c-0.1,0.6-0.2,1-0.2,1.4
			s-0.1,0.6-0.2,0.7l-1.3,5.5H255.5z"/>
		<path class="st0" d="M270,52.9h-2l1.2-9.4h1.8c0.9,0,1.5,0,1.9,0.1s0.7,0.3,1,0.5c0.3,0.2,0.5,0.5,0.7,0.9
			c0.2,0.4,0.2,0.8,0.2,1.2c0,0.5-0.1,1-0.3,1.4c-0.2,0.4-0.5,0.8-0.8,1c-0.3,0.2-0.7,0.4-1.1,0.5s-1,0.2-1.8,0.2h-0.5L270,52.9z
			 M270.7,47.7h0.3c0.7,0,1.3-0.1,1.5-0.3s0.4-0.6,0.4-1.1c0-0.4-0.1-0.7-0.3-0.9c-0.2-0.2-0.7-0.3-1.3-0.3H271L270.7,47.7z"/>
		<path class="st0" d="M273.7,52.9l4.9-9.4h2.2l2.3,9.4h-2.1l-0.4-2h-3.6l-1,2H273.7z M280.2,49.3l-0.5-2.2c0-0.2-0.1-0.5-0.1-0.8
			s-0.1-0.7-0.1-1.2c-0.1,0.3-0.2,0.7-0.3,1c-0.1,0.3-0.2,0.6-0.3,0.8l-1.1,2.4H280.2z"/>
		<path class="st0" d="M284.1,52.9l1.2-9.4h2.1l2.9,4.9c0.3,0.5,0.5,0.9,0.7,1.2c0.1,0.3,0.2,0.5,0.3,0.8c0-0.4,0-0.8,0.1-1.2
			c0-0.3,0.1-0.6,0.1-0.8l0.7-4.8h1.9l-1.3,9.4h-1.9l-3.2-5.5c-0.2-0.3-0.4-0.6-0.5-0.9c-0.1-0.3-0.2-0.5-0.3-0.7v0.3
			c0,0.3,0,0.6,0,0.9c0,0.3,0,0.6-0.1,0.9l-0.7,5H284.1z"/>
		<path class="st0" d="M296.3,52.9l0.7-4.3l-2.4-5.1h2.2l0.9,2.4c0.1,0.2,0.1,0.4,0.2,0.6c0.1,0.2,0.1,0.4,0.2,0.7
			c0.1-0.2,0.3-0.6,0.6-1.1l0.1-0.2l1.5-2.3h2.3l-3.7,5.1l-0.7,4.3H296.3z"/>
	</g>
</g>
</svg>
