<svg id="Layer_1" data-name="Layer 1" xmlns="http://www.w3.org/2000/svg" xmlns:xlink="http://www.w3.org/1999/xlink" viewBox="0 0 1383.33 799.77"><defs><style>.cls-1{fill:none;}.cls-2{fill:#545a95;stroke:#231f20;stroke-miterlimit:10;stroke-width:4px;}.cls-3{opacity:0.74;}.cls-4{clip-path:url(#clip-path);}.cls-5,.cls-6{fill:#ed1c24;}.cls-6,.cls-7{fill-rule:evenodd;}.cls-7{fill:#fff;}.cls-8{fill:#58595b;}</style><clipPath id="clip-path"><rect class="cls-1" x="211.92" y="375.44" width="899.2" height="323.71"/></clipPath></defs><rect class="cls-2" x="-22.33" y="-11.42" width="1427.87" height="811.19"/><image class="cls-3" width="4000" height="3000" transform="scale(0.35 0.27)" xlink:href="../../img/pngegg%20(2).png"/><g class="cls-4"><g class="cls-4"><path class="cls-5" d="M949.5,616.28,962.8,615q1.2,6.67,4.84,9.8t9.86,3.13c4.37,0,7.68-.93,9.89-2.78a8.31,8.31,0,0,0,3.34-6.51,6.26,6.26,0,0,0-1.4-4.09,11.12,11.12,0,0,0-4.89-2.91c-1.59-.57-5.21-1.54-10.87-3q-10.92-2.73-15.33-6.71A17.92,17.92,0,0,1,955,578.6a18.37,18.37,0,0,1,8.42-6.86,33.48,33.48,0,0,1,13.25-2.35q12.66,0,19.07,5.63c4.28,3.75,6.51,8.75,6.73,15l-13.68.47c-.58-3.49-1.82-6-3.72-7.52s-4.77-2.29-8.57-2.29-7,.82-9.23,2.45a5,5,0,0,0-2.16,4.21,5.19,5.19,0,0,0,2,4.11q2.58,2.19,12.5,4.54t14.67,4.86a19,19,0,0,1,7.46,6.87,20.19,20.19,0,0,1,2.69,10.76,19.84,19.84,0,0,1-3.23,10.88,19.24,19.24,0,0,1-9.12,7.53,38.12,38.12,0,0,1-14.7,2.47q-12.81,0-19.67-5.91t-8.19-17.2m-53.67,21.88v-67h13.68v55.57h33.87v11.41Zm-63.3,0V570.61h50V582H846.21v15H880v11.41H846.21v18.31h37.64v11.41Zm-62.93,0V570.61h50V582H783.28v15h33.77v11.41H783.28v18.31h37.64v11.41Zm-42.44,0V582h-20V570.61h53.59V582H740.84v56.13Zm-81.7-21.88,13.3-1.33q1.2,6.67,4.85,9.8t9.85,3.13q6.57,0,9.89-2.78a8.31,8.31,0,0,0,3.34-6.51,6.21,6.21,0,0,0-1.4-4.09,11.06,11.06,0,0,0-4.89-2.91c-1.59-.57-5.21-1.54-10.87-3q-10.92-2.73-15.33-6.71a17.9,17.9,0,0,1-3.28-23.32,18.34,18.34,0,0,1,8.41-6.86,33.48,33.48,0,0,1,13.25-2.35q12.67,0,19.08,5.63t6.73,15l-13.68.47c-.59-3.49-1.83-6-3.73-7.52s-4.76-2.29-8.57-2.29-7,.82-9.23,2.45a5,5,0,0,0-2.15,4.21,5.18,5.18,0,0,0,2,4.11q2.58,2.19,12.51,4.54t14.67,4.86a19,19,0,0,1,7.45,6.87,20.19,20.19,0,0,1,2.69,10.76,19.84,19.84,0,0,1-3.23,10.88,19.19,19.19,0,0,1-9.12,7.53,38.12,38.12,0,0,1-14.7,2.47q-12.81,0-19.67-5.91t-8.19-17.2M554.7,638.16V570.61h13.24l27.8,45.27V570.61h12.64v67.55H594.72l-27.38-44.4v44.4Zm-32.28-26.79-9.39-25-9.12,25Zm25,26.79H532.69l-5.84-15.38H499.76l-5.61,15.38H479.68l26.23-67.55h14.45Zm-87.53-67.55h13.68v67.55H459.89Zm-66,45.67,13.3-1.33c.8,4.45,2.4,7.71,4.84,9.8s5.72,3.13,9.86,3.13q6.56,0,9.89-2.78a8.3,8.3,0,0,0,3.33-6.51,6.21,6.21,0,0,0-1.4-4.09,11,11,0,0,0-4.89-2.91c-1.58-.57-5.2-1.54-10.86-3q-10.92-2.73-15.33-6.71a17.89,17.89,0,0,1-3.29-23.32,18.39,18.39,0,0,1,8.41-6.86A33.56,33.56,0,0,1,421,569.39q12.66,0,19.07,5.63c4.28,3.75,6.51,8.75,6.73,15l-13.68.47c-.58-3.49-1.82-6-3.72-7.52s-4.77-2.29-8.57-2.29-7,.82-9.23,2.45a5,5,0,0,0-2.16,4.21,5.19,5.19,0,0,0,2,4.11q2.56,2.19,12.5,4.54t14.67,4.86a18.88,18.88,0,0,1,7.45,6.87,21.31,21.31,0,0,1-.53,21.64,19.24,19.24,0,0,1-9.12,7.53,38.15,38.15,0,0,1-14.7,2.47q-12.81,0-19.67-5.91t-8.19-17.2m-28.7-4.91-9.39-25-9.12,25Zm25,26.79H375.42l-5.84-15.38H342.49l-5.61,15.38H322.41l26.23-67.55h14.45Z"/><path class="cls-6" d="M663.42,557.9A69.87,69.87,0,1,1,733.29,488a69.87,69.87,0,0,1-69.87,69.87"/><path class="cls-7" d="M663.42,552.25A64.22,64.22,0,1,1,727.63,488a64.22,64.22,0,0,1-64.21,64.22"/><path class="cls-6" d="M663.42,548.19A60.16,60.16,0,1,1,723.58,488a60.15,60.15,0,0,1-60.16,60.16"/><polygon class="cls-7" points="645.28 525.98 638.18 525.98 647.13 490.68 653.58 490.97 645.28 525.98"/><polygon class="cls-7" points="649.3 481.84 655.43 481.84 662.53 450.38 664.2 455.53 670.36 455.53 667.64 445.37 658.33 445.37 649.3 481.84"/><polygon class="cls-7" points="665.98 464.08 672.35 464.08 683.73 507.93 676.77 509.09 665.98 464.08"/><polygon class="cls-7" points="681.05 526.09 678.8 518.04 686.05 517.06 688.62 526.05 681.05 526.09"/><path class="cls-7" d="M629.7,498.22h7c-.87,5.66.62,9.51,4.78,11.3l-1.81,6.31c-7.59-2.6-11.43-8.06-9.93-17.61"/><path class="cls-7" d="M648.54,517.13l1.38-6.08,25.87-.51c10.23-.17,14-3.19,14.23-11.67-.1-6.36-3.35-8-9.44-8.7l-1.67-6.3c10.67.27,18.1,2.83,18.34,15.65-.41,14.41-8.38,17.72-21.24,17.61Z"/><path class="cls-7" d="M669.29,483.69l1.45,6.16-25.59-.66c-10-.37-15.61-4.65-15.51-15.65.89-14.53,11.46-16.74,24.14-16.74l-1.67,6.3c-9.53.31-14.44,2.42-15.22,8.84-.56,7.57,2.9,10.75,8.92,11.17Z"/><path class="cls-7" d="M661.17,462.74l1.52-6.16,9.21.14c15.82-.24,24.52,4.82,23.77,17.33h-7c0-7.36-3.66-11-14-11.31Z"/><path class="cls-8" d="M937.89,652.7l-6.82,13v7.63h-2.42v-7.57L922,652.7h2.75l4.62,9.33c.06.12.23.54.51,1.27h0a7.81,7.81,0,0,1,.55-1.27l4.84-9.33Zm-24.51,20.65H902.66V652.7h2.42v18.47h8.3Zm-32.73-18.47v8.47h2.53a5.69,5.69,0,0,0,3.83-1.14,4.06,4.06,0,0,0,1.31-3.24c0-2.72-1.61-4.09-4.83-4.09Zm0,10.65v7.82h-2.42V652.7h5.68a7.49,7.49,0,0,1,5.13,1.61,5.73,5.73,0,0,1,1.82,4.55,6.27,6.27,0,0,1-2,4.81,7.77,7.77,0,0,1-5.47,1.86Zm-24.43-10.65v8.47h2.53a5.66,5.66,0,0,0,3.82-1.14,4.06,4.06,0,0,0,1.32-3.24c0-2.72-1.61-4.09-4.83-4.09Zm0,10.65v7.82H853.8V652.7h5.68a7.51,7.51,0,0,1,5.13,1.61,5.76,5.76,0,0,1,1.82,4.55,6.27,6.27,0,0,1-2,4.81,7.77,7.77,0,0,1-5.47,1.86ZM840.73,665q0,8.71-7.86,8.71-7.51,0-7.51-8.37V652.7h2.42v12.47c0,4.24,1.78,6.35,5.36,6.35s5.17-2,5.17-6.13V652.7h2.42Zm-39.67,7.53v-2.86a5.47,5.47,0,0,0,1.18.77,9.54,9.54,0,0,0,1.43.59,12,12,0,0,0,1.52.37,9.15,9.15,0,0,0,1.41.12,5.52,5.52,0,0,0,3.33-.82,2.79,2.79,0,0,0,1.1-2.38,2.87,2.87,0,0,0-.36-1.46,4.31,4.31,0,0,0-1-1.13,9.86,9.86,0,0,0-1.53-1l-1.91-1q-1.08-.54-2-1.11a8,8,0,0,1-1.63-1.24,5.28,5.28,0,0,1-1.09-1.53,4.87,4.87,0,0,1-.39-2,4.76,4.76,0,0,1,.62-2.46,5.16,5.16,0,0,1,1.63-1.72,7.32,7.32,0,0,1,2.29-1,10.22,10.22,0,0,1,2.64-.33,10.09,10.09,0,0,1,4.45.73v2.72a8,8,0,0,0-4.7-1.27,7.08,7.08,0,0,0-1.58.17,4.32,4.32,0,0,0-1.42.54,3.09,3.09,0,0,0-1,1,2.54,2.54,0,0,0-.39,1.44,3.07,3.07,0,0,0,.29,1.37,3.41,3.41,0,0,0,.87,1.05,8.61,8.61,0,0,0,1.41.93c.55.29,1.18.62,1.9,1s1.44.75,2.1,1.16a8.9,8.9,0,0,1,1.74,1.34,5.64,5.64,0,0,1,1.19,1.63,4.58,4.58,0,0,1,.44,2,5.29,5.29,0,0,1-.59,2.58,4.86,4.86,0,0,1-1.62,1.72,6.79,6.79,0,0,1-2.34,1,12.56,12.56,0,0,1-2.79.3c-.32,0-.73,0-1.21-.08s-1-.13-1.47-.23a11.77,11.77,0,0,1-1.42-.38,4.3,4.3,0,0,1-1.07-.49m-18.95-17.65h-8.06V662h7.44v2.19h-7.44v9.14h-2.42V652.7h10.48ZM750,654.53a6.63,6.63,0,0,0-5.29,2.35,9.1,9.1,0,0,0-2,6.17,9.2,9.2,0,0,0,2,6.15,6.45,6.45,0,0,0,5.16,2.32,6.78,6.78,0,0,0,5.36-2.21,9.11,9.11,0,0,0,2-6.22,9.53,9.53,0,0,0-1.9-6.33,6.52,6.52,0,0,0-5.24-2.23m-.18,19.18a9.07,9.07,0,0,1-7-2.9,10.71,10.71,0,0,1-2.65-7.54,11.35,11.35,0,0,1,2.7-7.95,9.36,9.36,0,0,1,7.33-3,8.82,8.82,0,0,1,6.89,2.88,10.75,10.75,0,0,1,2.62,7.54,11.46,11.46,0,0,1-2.68,8,9.25,9.25,0,0,1-7.18,2.94m-28.29-.36h-11V652.7H721v2.18H713v6.88h7.47v2.18H713v7.23h8.53Zm-23.08-.85a12.2,12.2,0,0,1-5.7,1.21,9.18,9.18,0,0,1-7.05-2.84,10.47,10.47,0,0,1-2.65-7.45,11,11,0,0,1,3-8,10.07,10.07,0,0,1,7.56-3,12,12,0,0,1,4.86.85v2.57a9.82,9.82,0,0,0-4.89-1.24,7.51,7.51,0,0,0-5.77,2.38,9,9,0,0,0-2.21,6.35,8.52,8.52,0,0,0,2.07,6,7,7,0,0,0,5.42,2.24,10.18,10.18,0,0,0,5.38-1.38Zm-37.18-17.62v7.5h3.28a5,5,0,0,0,1.68-.28,4,4,0,0,0,1.34-.78,3.77,3.77,0,0,0,.88-1.25,4.28,4.28,0,0,0,.31-1.67,3.26,3.26,0,0,0-1.07-2.59,4.62,4.62,0,0,0-3.11-.93Zm12.39,18.47h-2.89l-3.46-5.79a12.68,12.68,0,0,0-.92-1.38,5.79,5.79,0,0,0-.92-.93,3.09,3.09,0,0,0-1-.52,4.18,4.18,0,0,0-1.22-.17h-2v8.79h-2.42V652.7H665a8.71,8.71,0,0,1,2.51.34,5.49,5.49,0,0,1,2,1,4.69,4.69,0,0,1,1.32,1.72,6.21,6.21,0,0,1,.15,4.39,4.89,4.89,0,0,1-.92,1.6,5.86,5.86,0,0,1-1.44,1.21,7.47,7.47,0,0,1-1.9.76v.06a4.46,4.46,0,0,1,.89.53,4.79,4.79,0,0,1,.73.7,10.27,10.27,0,0,1,.69.91l.75,1.19ZM645.75,665q0,8.71-7.85,8.71-7.51,0-7.52-8.37V652.7h2.42v12.47c0,4.24,1.79,6.35,5.36,6.35s5.17-2,5.17-6.13V652.7h2.42ZM609,654.53a6.63,6.63,0,0,0-5.28,2.35,9.05,9.05,0,0,0-2,6.17,9.15,9.15,0,0,0,2,6.15,6.44,6.44,0,0,0,5.16,2.32,6.79,6.79,0,0,0,5.36-2.21,9.11,9.11,0,0,0,2-6.22,9.48,9.48,0,0,0-1.9-6.33,6.49,6.49,0,0,0-5.24-2.23m-.17,19.18a9.07,9.07,0,0,1-7-2.9,10.75,10.75,0,0,1-2.64-7.54,11.39,11.39,0,0,1,2.69-7.95,9.38,9.38,0,0,1,7.33-3,8.81,8.81,0,0,1,6.89,2.88,10.75,10.75,0,0,1,2.62,7.54,11.42,11.42,0,0,1-2.68,8,9.21,9.21,0,0,1-7.17,2.94m-32.89-1.18v-2.86a5.47,5.47,0,0,0,1.18.77,9.24,9.24,0,0,0,1.44.59,11.23,11.23,0,0,0,1.52.37,9,9,0,0,0,1.41.12,5.56,5.56,0,0,0,3.33-.82,2.81,2.81,0,0,0,1.1-2.38,2.88,2.88,0,0,0-.37-1.46,4.1,4.1,0,0,0-1-1.13,10.49,10.49,0,0,0-1.54-1l-1.9-1c-.72-.36-1.39-.73-2-1.11a8.63,8.63,0,0,1-1.63-1.24,5.25,5.25,0,0,1-1.08-1.53,4.87,4.87,0,0,1-.4-2,4.76,4.76,0,0,1,.62-2.46,5.36,5.36,0,0,1,1.63-1.72,7.48,7.48,0,0,1,2.3-1,12.51,12.51,0,0,1,7.08.4v2.72a8,8,0,0,0-4.7-1.27,7.14,7.14,0,0,0-1.58.17,4.18,4.18,0,0,0-1.41.54,3,3,0,0,0-1,1,2.54,2.54,0,0,0-.39,1.44,2.94,2.94,0,0,0,.3,1.37,3.15,3.15,0,0,0,.87,1.05,8.5,8.5,0,0,0,1.4.93c.55.29,1.19.62,1.91,1s1.44.75,2.1,1.16a9.54,9.54,0,0,1,1.74,1.34A6,6,0,0,1,588,666.1a4.58,4.58,0,0,1,.44,2,5.18,5.18,0,0,1-.6,2.58,4.92,4.92,0,0,1-1.61,1.72,6.79,6.79,0,0,1-2.34,1,12.72,12.72,0,0,1-2.8.3c-.32,0-.72,0-1.21-.08s-1-.13-1.47-.23A11.61,11.61,0,0,1,577,673a4.38,4.38,0,0,1-1.08-.49m-18.26-17.65h-6v18.47h-2.42V654.88h-6V652.7h14.34Zm-36.78,17.65v-2.86a5.47,5.47,0,0,0,1.18.77,9.54,9.54,0,0,0,1.43.59,12,12,0,0,0,1.52.37,9.17,9.17,0,0,0,1.42.12,5.51,5.51,0,0,0,3.32-.82,2.79,2.79,0,0,0,1.11-2.38,2.88,2.88,0,0,0-.37-1.46,4,4,0,0,0-1-1.13,9.86,9.86,0,0,0-1.53-1l-1.9-1c-.73-.36-1.39-.73-2-1.11a8.63,8.63,0,0,1-1.63-1.24,5.25,5.25,0,0,1-1.08-1.53,4.87,4.87,0,0,1-.4-2,4.76,4.76,0,0,1,.62-2.46,5.36,5.36,0,0,1,1.63-1.72,7.38,7.38,0,0,1,2.3-1,12.51,12.51,0,0,1,7.08.4v2.72a8,8,0,0,0-4.7-1.27,7.14,7.14,0,0,0-1.58.17,4.18,4.18,0,0,0-1.41.54,3,3,0,0,0-1,1,2.54,2.54,0,0,0-.39,1.44,2.94,2.94,0,0,0,.3,1.37,3.15,3.15,0,0,0,.87,1.05,8.5,8.5,0,0,0,1.4.93c.55.29,1.19.62,1.91,1s1.44.75,2.1,1.16a9.54,9.54,0,0,1,1.74,1.34A6,6,0,0,1,533,666.1a4.58,4.58,0,0,1,.43,2,5.18,5.18,0,0,1-.59,2.58,4.92,4.92,0,0,1-1.61,1.72,6.79,6.79,0,0,1-2.34,1,12.72,12.72,0,0,1-2.8.3c-.32,0-.73,0-1.21-.08s-1-.13-1.47-.23A11.13,11.13,0,0,1,522,673a4.22,4.22,0,0,1-1.08-.49m-10.91.82H499V652.7h10.48v2.18h-8.06v6.88h7.47v2.18h-7.47v7.23H510Zm-33.35-9.62v7.44h3.29a4.9,4.9,0,0,0,3.3-1,3.45,3.45,0,0,0,1.17-2.77q0-3.66-5-3.66Zm0-8.85v6.67h2.48a4.65,4.65,0,0,0,3.11-1,3.34,3.34,0,0,0,1.14-2.7c0-2-1.32-3-3.95-3Zm-2.42,18.47V652.7h5.87a6.45,6.45,0,0,1,4.25,1.31,4.22,4.22,0,0,1,1.57,3.41,5,5,0,0,1-.95,3.05,5.17,5.17,0,0,1-2.62,1.85v.06a5.34,5.34,0,0,1,3.35,1.57,4.89,4.89,0,0,1,1.25,3.47,5.4,5.4,0,0,1-1.9,4.29,7.06,7.06,0,0,1-4.8,1.64Zm-20,0H443.29V652.7h10.48v2.18h-8.06v6.88h7.47v2.18h-7.47v7.23h8.53Zm-24.28,0h-2.42v-9.41H416.86v9.41h-2.42V652.7h2.42v9.06h10.68V652.7H430Zm-26.68-18.47h-6v18.47H394.9V654.88h-6V652.7h14.34Z"/></g></g><image width="1397" height="1432" transform="translate(971.46 42.86) scale(0.31)" xlink:href="../../img/pngegg.png"/><image width="700" height="498" transform="translate(-7.18 36.94) scale(0.54 0.69)" xlink:href="../../img/1.png"/></svg>